<svg height="16.41" viewBox="0 0 20 16.41" width="20" xmlns="http://www.w3.org/2000/svg">
    <g id="noun_Camera_765994" transform="translate(-11 -18)">
        <g data-name="Group 125" id="Group_125" transform="translate(11 18)">
            <path
                d="M18.179,970.362a.845.845,0,0,0-.689.425l-.817,1.627H13.308A2.32,2.32,0,0,0,11,974.721v9.744a2.32,2.32,0,0,0,2.308,2.308H28.692A2.32,2.32,0,0,0,31,984.465v-9.744a2.32,2.32,0,0,0-2.308-2.308H25.327l-.817-1.627a.787.787,0,0,0-.689-.425Zm.481,1.538H23.34l.817,1.627a.787.787,0,0,0,.689.425h3.846a.751.751,0,0,1,.769.769v9.744a.751.751,0,0,1-.769.769H13.308a.751.751,0,0,1-.769-.769v-9.744a.751.751,0,0,1,.769-.769h3.846a.787.787,0,0,0,.689-.425ZM21,974.978a4.615,4.615,0,1,0,4.615,4.615A4.627,4.627,0,0,0,21,974.978Zm0,1.538a3.077,3.077,0,1,1-3.077,3.077A3.065,3.065,0,0,1,21,976.516Z"
                data-name="Path 178" fill="#0052fe" id="Path_178"
                transform="translate(-11 -970.362)" />
        </g>
    </g>
</svg>
