<svg xmlns="http://www.w3.org/2000/svg" width="20" height="16.168" viewBox="0 0 20 16.168">
  <g id="noun_Photo_2059577" transform="translate(-2.5 -11.6)">
    <g id="Group_127" data-name="Group 127" transform="translate(2.5 11.6)">
      <path id="Path_179" data-name="Path 179" d="M30.783,41.825l-3.306-3.787a1.064,1.064,0,0,0-1.6,0l-3.517,4.018-1.6-1.746a.97.97,0,0,0-1.432,0L16.8,43.087v2.23H30.762V41.825Z" transform="translate(-13.791 -32.182)" fill="#0052fe"/>
      <circle id="Ellipse_155" data-name="Ellipse 155" cx="1.452" cy="1.452" r="1.452" transform="translate(3.348 3.39)" fill="#0052fe"/>
      <g id="Path_180" data-name="Path 180" transform="translate(-2.5 -11.6)" fill="#0052fe">
        <path d="M 21.59473991394043 27.66842269897461 L 3.40526008605957 27.66842269897461 C 2.953710079193115 27.66842269897461 2.599999904632568 27.3147029876709 2.599999904632568 26.8631534576416 L 2.599999904632568 12.50526332855225 C 2.599999904632568 12.05371379852295 2.953710079193115 11.7000036239624 3.40526008605957 11.7000036239624 L 21.59473991394043 11.7000036239624 C 22.04628944396973 11.7000036239624 22.39999961853027 12.05371379852295 22.39999961853027 12.50526332855225 L 22.39999961853027 26.8631534576416 C 22.39999961853027 27.3147029876709 22.04628944396973 27.66842269897461 21.59473991394043 27.66842269897461 Z M 4.210529804229736 13.31052398681641 L 4.210529804229736 13.41052341461182 L 4.210529804229736 25.95789337158203 L 4.210529804229736 26.05789375305176 L 4.310530185699463 26.05789375305176 L 20.6894702911377 26.05789375305176 L 20.78947067260742 26.05789375305176 L 20.78947067260742 25.95789337158203 L 20.78947067260742 13.41052341461182 L 20.78947067260742 13.31052398681641 L 20.6894702911377 13.31052398681641 L 4.310530185699463 13.31052398681641 L 4.210529804229736 13.31052398681641 Z" stroke="none"/>
        <path d="M 3.40526008605957 11.80000114440918 C 3.009790420532227 11.80000114440918 2.700000762939453 12.10979080200195 2.700000762939453 12.50526237487793 L 2.700000762939453 26.86316299438477 C 2.700000762939453 27.25863265991211 3.009790420532227 27.56842041015625 3.40526008605957 27.56842041015625 L 21.59473991394043 27.56842041015625 C 21.99020957946777 27.56842041015625 22.29999923706055 27.25863265991211 22.29999923706055 26.86316299438477 L 22.29999923706055 12.50526237487793 C 22.29999923706055 12.10979080200195 21.99020957946777 11.80000114440918 21.59473991394043 11.80000114440918 L 3.40526008605957 11.80000114440918 M 20.88946914672852 26.15790176391602 L 4.110530853271484 26.15790176391602 L 4.110530853271484 13.21052169799805 L 20.88946914672852 13.21052169799805 L 20.88946914672852 26.15790176391602 M 3.40526008605957 11.60000228881836 L 21.59473991394043 11.60000228881836 C 22.10000038146973 11.60000228881836 22.5 12.00000190734863 22.5 12.50526237487793 L 22.5 26.86316299438477 C 22.5 27.36842155456543 22.10000038146973 27.7684211730957 21.59473991394043 27.7684211730957 L 3.40526008605957 27.7684211730957 C 2.899999618530273 27.7684211730957 2.5 27.36842155456543 2.5 26.86316299438477 L 2.5 12.50526237487793 C 2.5 12.00000190734863 2.899999618530273 11.60000228881836 3.40526008605957 11.60000228881836 Z M 20.6894702911377 25.95790100097656 L 20.6894702911377 13.4105224609375 L 4.310529708862305 13.4105224609375 L 4.310529708862305 25.95790100097656 L 20.6894702911377 25.95790100097656 Z" stroke="none" fill="#fff"/>
      </g>
    </g>
  </g>
</svg>
